<svg width="154" height="132" viewBox="0 0 154 132" fill="none" xmlns="http://www.w3.org/2000/svg">
<g clip-path="url(#clip0_130_17)">
<path d="M153.672 30.1761V126.352C153.672 129.11 151.21 131.343 148.453 131.343H6.99106C4.23403 131.343 0.0984802 130.096 0.0984802 127.337V31.1612C0.0984802 29.3224 2.06779 27.2537 4.0371 26.1045V33.2627L76.7374 71.6806L149.438 123.496V25.2836C152.031 25.7433 153.672 27.7463 153.672 30.1761Z" fill="#122C37"/>
<path d="M149.405 3.0209V32.3104L76.7046 71.7134L4.00427 41.3075V3.0209C4.00427 0.853731 4.29967 0 8.07418 0H139.887C143.661 0 149.405 0.853731 149.405 3.0209Z" fill="#CFCCC5"/>
<path d="M153.311 30.1761L153.147 127.666L76.5733 71.7135L153.311 30.1761Z" fill="#1B3D49"/>
<path d="M149.405 124.94V126.352C149.405 129.11 146.385 131.343 142.611 131.343H10.8312C7.05669 131.343 4.03708 129.11 4.03708 126.352V33.2627L76.7374 71.6806L149.405 124.94Z" fill="#122C37"/>
<path d="M44.46 42L46.14 31.34H47.04L47.1 32.54C47.7133 32.1533 48.3867 31.8333 49.12 31.58C49.8667 31.3133 50.64 31.18 51.44 31.18C52.1067 31.18 52.64 31.2933 53.04 31.52C53.4533 31.7467 53.7467 32.0533 53.92 32.44C54.1067 32.8133 54.2 33.24 54.2 33.72C54.2 33.88 54.1867 34.0733 54.16 34.3C54.1467 34.5133 54.1 34.9067 54.02 35.48L52.98 42H51.82L52.84 35.52C52.9067 35.0667 52.9533 34.7533 52.98 34.58C53.0067 34.3933 53.02 34.24 53.02 34.12C53.02 33.5867 52.8667 33.14 52.56 32.78C52.2533 32.4067 51.7067 32.22 50.92 32.22C50.1467 32.22 49.4667 32.3267 48.88 32.54C48.2933 32.74 47.66 33.0333 46.98 33.42L45.62 42H44.46ZM60.0458 42.12C59.2858 42.12 58.6124 42.0067 58.0258 41.78C57.4524 41.54 57.0058 41.16 56.6858 40.64C56.3658 40.12 56.2058 39.42 56.2058 38.54C56.2058 38.22 56.2191 37.9067 56.2458 37.6C56.2724 37.28 56.3124 36.9467 56.3658 36.6C56.5391 35.5333 56.7658 34.6533 57.0458 33.96C57.3258 33.2667 57.6791 32.72 58.1058 32.32C58.5324 31.92 59.0458 31.64 59.6458 31.48C60.2458 31.3067 60.9524 31.22 61.7658 31.22C62.7124 31.22 63.4658 31.36 64.0258 31.64C64.5858 31.92 64.9858 32.3333 65.2258 32.88C65.4791 33.4267 65.6058 34.1067 65.6058 34.92C65.6058 35.24 65.5858 35.58 65.5458 35.94C65.5058 36.2867 65.4591 36.6533 65.4058 37.04C65.2058 38.3333 64.8924 39.3533 64.4658 40.1C64.0524 40.8467 63.4858 41.3733 62.7658 41.68C62.0591 41.9733 61.1524 42.12 60.0458 42.12ZM60.2058 41.14C60.7791 41.14 61.2858 41.0867 61.7258 40.98C62.1791 40.86 62.5658 40.6533 62.8858 40.36C63.2058 40.0533 63.4791 39.6133 63.7058 39.04C63.9324 38.4667 64.1124 37.7267 64.2458 36.82C64.3124 36.4333 64.3591 36.0867 64.3858 35.78C64.4124 35.46 64.4258 35.1667 64.4258 34.9C64.4258 33.9133 64.2058 33.2133 63.7658 32.8C63.3391 32.3867 62.6124 32.18 61.5858 32.18C60.9724 32.18 60.4391 32.2467 59.9858 32.38C59.5458 32.5133 59.1658 32.7467 58.8458 33.08C58.5391 33.4133 58.2791 33.8867 58.0658 34.5C57.8524 35.1 57.6658 35.8733 57.5058 36.82C57.4524 37.14 57.4124 37.44 57.3858 37.72C57.3591 38 57.3458 38.26 57.3458 38.5C57.3458 39.2333 57.4658 39.7933 57.7058 40.18C57.9591 40.5533 58.2991 40.8067 58.7258 40.94C59.1524 41.0733 59.6458 41.14 60.2058 41.14ZM70.3948 42.12C69.4615 42.12 68.7615 41.9 68.2948 41.46C67.8415 41.02 67.6148 40.42 67.6148 39.66C67.6148 39.4333 67.6215 39.2333 67.6348 39.06C67.6615 38.8733 67.6815 38.7067 67.6948 38.56L68.8548 31.34H70.0148L68.8748 38.54C68.8615 38.6467 68.8482 38.76 68.8348 38.88C68.8215 39 68.8148 39.1267 68.8148 39.26C68.8148 39.8333 68.9748 40.28 69.2948 40.6C69.6282 40.92 70.1615 41.08 70.8948 41.08C71.6548 41.08 72.3282 40.98 72.9148 40.78C73.5148 40.58 74.1548 40.3 74.8348 39.94L76.2148 31.34H77.3748L75.6748 42H74.7348L74.7148 40.8C74.3015 41.0533 73.8748 41.28 73.4348 41.48C73.0082 41.68 72.5415 41.84 72.0348 41.96C71.5415 42.0667 70.9948 42.12 70.3948 42.12ZM81.5806 42L79.1006 31.34H80.2806L82.4006 40.82L86.4206 33.66C86.634 33.26 86.8006 32.8667 86.9206 32.48C87.054 32.08 87.154 31.6467 87.2206 31.18H88.2006C88.2006 31.66 88.114 32.1533 87.9406 32.66C87.7806 33.1533 87.5606 33.66 87.2806 34.18L82.8606 42H81.5806ZM93.6131 42.12C92.5865 42.12 91.7465 41.9867 91.0931 41.72C90.4531 41.44 89.9865 41.0267 89.6931 40.48C89.3998 39.9333 89.2531 39.26 89.2531 38.46C89.2531 38.0467 89.2731 37.6467 89.3131 37.26C89.3531 36.8733 89.3998 36.5 89.4531 36.14C89.6131 35.0867 89.8998 34.1933 90.3131 33.46C90.7398 32.7133 91.3198 32.1467 92.0531 31.76C92.7998 31.36 93.7265 31.16 94.8331 31.16C95.4065 31.16 95.9198 31.2133 96.3731 31.32C96.8265 31.4133 97.2131 31.5733 97.5331 31.8C97.8665 32.0133 98.1198 32.3067 98.2931 32.68C98.4798 33.04 98.5731 33.48 98.5731 34C98.5731 34.6933 98.4265 35.2733 98.1331 35.74C97.8531 36.1933 97.4731 36.5467 96.9931 36.8C96.5131 37.04 95.9665 37.2133 95.3531 37.32C94.7398 37.4133 94.1131 37.46 93.4731 37.46C92.8065 37.46 92.2065 37.4267 91.6731 37.36C91.1398 37.2933 90.7398 37.22 90.4731 37.14C90.4465 37.3667 90.4265 37.6 90.4131 37.84C90.3998 38.0667 90.3931 38.2933 90.3931 38.52C90.3931 39.4533 90.6665 40.1333 91.2131 40.56C91.7598 40.9867 92.6731 41.2 93.9531 41.2H97.1331L97.0131 41.92C96.6265 41.96 96.1198 42 95.4931 42.04C94.8798 42.0933 94.2531 42.12 93.6131 42.12ZM92.9931 36.7C93.8731 36.7 94.6465 36.6267 95.3131 36.48C95.9798 36.3333 96.4998 36.0733 96.8731 35.7C97.2598 35.3267 97.4531 34.8 97.4531 34.12C97.4531 33.3867 97.2265 32.8667 96.7731 32.56C96.3331 32.2533 95.6598 32.1 94.7531 32.1C93.8198 32.1 93.0731 32.2733 92.5131 32.62C91.9531 32.9667 91.5198 33.4667 91.2131 34.12C90.9065 34.76 90.6865 35.5467 90.5531 36.48C90.8731 36.5333 91.2465 36.5867 91.6731 36.64C92.1131 36.68 92.5531 36.7 92.9931 36.7ZM102.55 42C101.817 42 101.25 41.82 100.85 41.46C100.463 41.1 100.27 40.5933 100.27 39.94C100.27 39.66 100.283 39.3867 100.31 39.12C100.35 38.8533 100.39 38.6067 100.43 38.38L102.29 26.74H103.45L101.63 38.1C101.617 38.22 101.597 38.3733 101.57 38.56C101.543 38.7467 101.517 38.9333 101.49 39.12C101.477 39.3067 101.47 39.5 101.47 39.7C101.47 40.18 101.577 40.52 101.79 40.72C102.017 40.9067 102.323 41.02 102.71 41.06L103.85 41.18L103.71 42H102.55ZM108.234 42C107.5 42 106.934 41.82 106.534 41.46C106.147 41.1 105.954 40.5933 105.954 39.94C105.954 39.66 105.967 39.3867 105.994 39.12C106.034 38.8533 106.074 38.6067 106.114 38.38L107.974 26.74H109.134L107.314 38.1C107.3 38.22 107.28 38.3733 107.254 38.56C107.227 38.7467 107.2 38.9333 107.174 39.12C107.16 39.3067 107.154 39.5 107.154 39.7C107.154 40.18 107.26 40.52 107.474 40.72C107.7 40.9067 108.007 41.02 108.394 41.06L109.534 41.18L109.394 42H108.234Z" fill="black"/>
</g>
<defs>
<clipPath id="clip0_130_17">
<rect width="154" height="132" fill="white"/>
</clipPath>
</defs>
</svg>
